# WaveFront *.obj file (generated by Cinema 4D)

mtllib ./exp.mtl

v 79.99726867675781 268.38580322265625 -499.14682006835938
v 101.49083709716797 268.38580322265625 -481.50753784179688
v 55.4755859375 268.38580322265625 -512.25390625
v 28.86801147460938 268.38580322265625 -520.3251953125
v 1.19706380367279 268.38580322265625 -523.05059814453125
v -26.4738826751709 268.38580322265625 -520.3251953125
v -53.08143615722656 268.38580322265625 -512.25384521484375
v -77.60311126708984 268.38580322265625 -499.146728515625
v -99.09653472900391 268.38580322265625 -481.507568359375
v -116.7357177734375 268.38580322265625 -460.01409912109375
v -129.84281921386719 268.38580322265625 -435.49240112304688
v -137.91412353515625 268.38580322265625 -408.88485717773438
v -140.63946533203125 268.38580322265625 -381.21389770507812
v -137.91410827636719 268.38580322265625 -353.54293823242188
v -129.8427734375 268.38580322265625 -326.93536376953125
v -116.73567199707031 268.38580322265625 -302.41372680664062
v -99.09645843505859 268.38580322265625 -280.9202880859375
v -77.60303497314453 268.38580322265625 -263.28109741210938
v -53.08136749267578 268.38580322265625 -250.17398071289062
v -26.47379875183105 268.38580322265625 -242.1026611328125
v 1.19714951515198 268.38580322265625 -239.3773193359375
v 28.86809539794922 268.38580322265625 -242.1026611328125
v 55.47565460205078 268.38580322265625 -250.17398071289062
v 79.99733734130859 268.38580322265625 -263.28109741210938
v 101.49076080322266 268.38580322265625 -280.9202880859375
v 119.12997436523438 268.38580322265625 -302.4136962890625
v 132.23707580566406 268.38580322265625 -326.93536376953125
v 140.30842590332031 268.38580322265625 -353.54293823242188
v 143.03376770019531 268.38580322265625 -381.2138671875
v 140.30842590332031 268.38580322265625 -408.88479614257812
v 132.23712158203125 268.38580322265625 -435.49240112304688
v 119.13002777099609 268.38580322265625 -460.01409912109375
v 79.99665832519531 465.74468994140625 -499.147216796875
v 101.49092864990234 465.74468994140625 -481.50741577148438
v 55.47494125366211 465.74468994140625 -512.254150390625
v 28.86736106872559 465.74468994140625 -520.32537841796875
v 1.19643366336823 465.74468994140625 -523.05059814453125
v -26.47446632385254 465.74468994140625 -520.3250732421875
v -53.08196258544922 465.74468994140625 -512.253662109375
v -77.60355377197266 465.74468994140625 -499.14645385742188
v -99.09687805175781 465.74468994140625 -481.5072021484375
v -116.73596954345703 465.74468994140625 -460.01370239257812
v -129.84298706054688 465.74468994140625 -435.49203491210938
v -137.91421508789062 465.74468994140625 -408.88446044921875
v -140.63946533203125 465.74468994140625 -381.21356201171875
v -137.9140625 465.74468994140625 -353.54263305664062
v -129.84266662597656 465.74468994140625 -326.93511962890625
v -116.73552703857422 465.74468994140625 -302.41348266601562
v -99.09630584716797 465.74468994140625 -280.92013549804688
v -77.60288238525391 465.74468994140625 -263.281005859375
v -53.08122253417969 465.74468994140625 -250.17393493652344
v -26.47367858886719 465.74468994140625 -242.1026611328125
v 1.19723856449127 465.74468994140625 -239.3773193359375
v 28.86815071105957 465.74468994140625 -242.1026611328125
v 55.47568130493164 465.74468994140625 -250.17398071289062
v 79.99732971191406 465.74468994140625 -263.28109741210938
v 101.49073791503906 465.74468994140625 -280.92025756835938
v 119.12992095947266 465.74468994140625 -302.41363525390625
v 132.23703002929688 465.74468994140625 -326.93527221679688
v 140.30838012695312 465.74468994140625 -353.54278564453125
v 143.03376770019531 465.74468994140625 -381.21368408203125
v 140.3084716796875 465.74468994140625 -408.88470458984375
v 132.2371826171875 465.74468994140625 -435.49221801757812
v 119.13011169433594 465.74468994140625 -460.01394653320312
# 64 vertices

vn 0.63184261322021 0.44894233345985 -0.63184314966202
vn 0.24749907851219 0.89528775215149 -0.37041065096855
vn 0.30714410543442 -0.83328282833099 -0.45967620611191
vn 0.63184267282486 -0.44894206523895 -0.63184320926666
vn 0.34194856882095 -0.44894215464592 -0.82554352283478
vn 0.34194856882095 0.44894215464592 -0.82554352283478
vn 0.10785412788391 -0.83328282833099 -0.54222428798676
vn 0.13761514425278 0.70881122350693 -0.69184440374374
vn -0.00000246517652 -0.44894224405289 -0.89356076717377
vn -0.00000246517675 0.44894215464592 -0.89356082677841
vn -0.17432801425457 -0.44894218444824 -0.8763906955719
vn -0.08691194653511 0.89528769254684 -0.43692815303802
vn -0.14153535664082 -0.92909246683121 -0.34169414639473
vn -0.34195300936699 0.44894209504128 -0.82554173469543
vn -0.39189931750298 -0.70881128311157 -0.58651638031006
vn -0.39189937710762 0.70881128311157 -0.58651638031006
vn -0.63184434175491 -0.44894218444824 -0.63184148073196
vn -0.63184428215027 0.44894227385521 -0.63184142112732
vn -0.58651810884476 -0.70881122350693 -0.39189684391022
vn -0.37041062116623 0.89528775215149 -0.24749921262264
vn -0.51076430082321 -0.83328282833099 -0.21156449615955
vn -0.65170335769653 0.70881128311157 -0.26994308829308
vn -0.87639158964157 -0.44894224405289 -0.17432349920273
vn -0.87639158964157 0.44894215464592 -0.17432349920273
vn -0.55284696817398 -0.83328282833099 0.00000081537524
vn -0.55284696817398 0.83328282833099 0.00000081537524
vn -0.87639105319977 -0.44894218444824 0.17432636022568
vn -0.87639105319977 0.4489421248436 0.17432636022568
vn -0.82554203271866 -0.44894215464592 0.34195214509964
vn -0.29088917374611 0.94913935661316 0.12049073725939
vn -0.37040975689888 -0.89528775215149 0.24750049412251
vn -0.74296808242798 0.44894215464592 0.49643665552139
vn -0.39092135429382 -0.83328282833099 0.39092224836349
vn -0.4987912774086 0.70881128311157 0.49879240989685
vn -0.49643531441689 -0.44894215464592 0.74296897649765
vn -0.39189782738686 0.70881128311157 0.58651739358902
vn -0.21156513690948 -0.83328282833099 0.51076406240463
vn -0.34195056557655 0.44894224405289 0.82554268836975
vn -0.17432469129562 -0.4489421248436 0.87639141082764
vn -0.0721535012126 0.92909246683121 0.36274099349976
vn 0.00000000620844 -0.83328282833099 0.55284696817398
vn 0.00000000792158 0.70881128311157 0.70539820194244
vn 0.17432509362698 -0.44894221425056 0.8763912320137
vn 0.17432510852814 0.4489421248436 0.87639129161835
vn 0.17048116028309 -0.89528775215149 0.41157752275467
vn 0.26994442939758 0.70881128311157 0.65170282125473
vn 0.49643582105637 -0.44894215464592 0.74296861886978
vn 0.30714532732964 0.83328282833099 0.45967543125153
vn 0.26152151823044 -0.92909246683121 0.26152181625366
vn 0.63184255361557 0.44894215464592 0.63184326887131
vn 0.74296844005585 -0.44894215464592 0.49643614888191
vn 0.74296844005585 0.44894218444824 0.49643614888191
vn 0.51076382398605 -0.83328282833099 0.21156577765942
vn 0.41157746315002 0.89528775215149 0.17048136889935
vn 0.87639111280441 -0.44894215464592 0.17432595789433
vn 0.87639111280441 0.44894221425056 0.17432595789433
vn 0.70539820194244 -0.70881128311157 0.00000065221036
vn 0.70539820194244 0.70881128311157 0.00000065221036
vn 0.36274099349976 -0.92909246683121 -0.07215332984924
vn 0.87639147043228 0.44894215464592 -0.17432427406311
vn 0.82554292678833 -0.44894215464592 -0.3419500887394
vn 0.41157776117325 0.89528775215149 -0.17048059403896
vn 0.5865176320076 -0.70881128311157 -0.39189752936363
vn 0.74296921491623 0.44894230365753 -0.49643486738205
vn 0 0 0
vn 0.70710676908493 0 -0.70710676908493
vn 0 -0.00000001230892 -1
vn 0 0 -1
vn 0 0 -1
vn 0 1 0
vn 0 -1 0
vn 0 -1 0
# 72 normals

o cylinders.1
usemtl block grey
f 2//4 1//3 33//2 34//1
f 35//6 33//2 1//3 3//5
f 36//8 35//6 3//5 4//7
f 37//10 36//8 4//7 5//9
f 38//12 37//10 5//9 6//11
f 39//14 38//12 6//11 7//13
f 40//16 39//14 7//13 8//15
f 41//18 40//16 8//15 9//17
f 42//20 41//18 9//17 10//19
f 43//22 42//20 10//19 11//21
f 44//24 43//22 11//21 12//23
f 45//26 44//24 12//23 13//25
f 46//28 45//26 13//25 14//27
f 47//30 46//28 14//27 15//29
f 48//32 47//30 15//29 16//31
f 49//34 48//32 16//31 17//33
f 50//36 49//34 17//33 18//35
f 51//38 50//36 18//35 19//37
f 52//40 51//38 19//37 20//39
f 53//42 52//40 20//39 21//41
f 54//44 53//42 21//41 22//43
f 55//46 54//44 22//43 23//45
f 56//48 55//46 23//45 24//47
f 57//50 56//48 24//47 25//49
f 58//52 57//50 25//49 26//51
f 59//54 58//52 26//51 27//53
f 60//56 59//54 27//53 28//55
f 61//58 60//56 28//55 29//57
f 62//60 61//58 29//57 30//59
f 63//62 62//60 30//59 31//61
f 64//64 63//62 31//61 32//63
f 34//1 64//64 32//63 2//4
f 9//65 8//15 7//13 6//11 5//9 4//7 3//5 1//3 2//4 32//63 31//61 30//59 29//57 28//55 27//53 26//51 25//49 24//47 23//45 22//43 21//41 20//39 19//37 18//35 17//33 16//31 15//29 14//27 13//25 12//23 11//21 10//19
f 41//65 42//20 43//22 44//24 45//26 46//28 47//30 48//32 49//34 50//36 51//38 52//40 53//42 54//44 55//46 56//48 57//50 58//52 59//54 60//56 61//58 62//60 63//62 64//64 34//1 33//2 35//6 36//8 37//10 38//12 39//14 40//16

